<svg width="100" height="100" viewBox="0 0 100 100" fill="none" xmlns="http://www.w3.org/2000/svg">
<circle cx="50" cy="50" r="48.5" stroke="#00BBC2" stroke-width="3"/>
<path fill-rule="evenodd" clip-rule="evenodd" d="M50.0277 43.6558C61.8414 43.6558 71.1895 50.6564 73.3787 59.1106C75.3323 66.6546 75.0155 83.9978 74.9246 88.9716C74.9137 89.5712 75.0277 91.8078 75.0277 91.8078C75.0277 91.8078 64.4508 99.9809 49.0662 99.5001C33.6815 99.0193 25.4808 92.0721 25.4808 92.0721C25.4808 92.0721 25.3633 89.1676 25.3207 88.098C25.0883 82.2621 24.4602 66.4911 26.0373 59.0939C27.9034 50.3408 37.934 43.6558 50.0277 43.6558Z" fill="url(#paint0_linear_674_438)"/>
<path fill-rule="evenodd" clip-rule="evenodd" d="M50.6449 56.4854C55.7029 56.4854 63.5381 57.3557 66.8354 67.5617C68.8256 73.7219 67.8167 80.8794 67.8167 96.1347C67.8167 96.1347 59.6436 99.5001 49.5475 99.5001C39.4513 99.5001 31.2783 95.654 31.2783 95.654C31.2783 80.5501 30.8345 73.7304 32.9827 67.5617C36.5989 57.1771 45.5567 56.4854 50.6449 56.4854Z" fill="url(#paint1_linear_674_438)"/>
<path d="M62.2999 55.4539C66.6277 55.4539 70.136 51.9456 70.136 47.6178C70.136 43.2901 66.6277 39.7817 62.2999 39.7817C57.9722 39.7817 54.4639 43.2901 54.4639 47.6178C54.4639 51.9456 57.9722 55.4539 62.2999 55.4539Z" stroke="#2B2A29" stroke-width="0.551493" stroke-miterlimit="22.9256"/>
<path fill-rule="evenodd" clip-rule="evenodd" d="M55.4876 40.1669C59.6027 36.4045 65.9886 36.6904 69.751 40.8055C73.5133 44.9206 73.2274 51.3065 69.1123 55.0688C64.9972 58.8312 58.6114 58.5453 54.849 54.4302C51.0866 50.3152 51.3725 43.9293 55.4876 40.1669Z" fill="url(#paint2_linear_674_438)"/>
<path d="M65.3318 55.2037C69.5213 53.529 71.56 48.7752 69.8853 44.5857C68.2106 40.3962 63.4568 38.3576 59.2674 40.0322C55.0779 41.7069 53.0392 46.4607 54.7139 50.6502C56.3885 54.8396 61.1423 56.8783 65.3318 55.2037Z" fill="#F6E125"/>
<path d="M63.6386 53.7819C67.0429 52.4212 68.6995 48.5583 67.3387 45.1541C65.9779 41.7498 62.1151 40.0933 58.7108 41.4541C55.3066 42.8148 53.65 46.6777 55.0108 50.0819C56.3716 53.4862 60.2344 55.1427 63.6386 53.7819Z" fill="#2B2A29"/>
<path d="M59.6788 44.7571C60.3445 44.491 60.6685 43.7356 60.4024 43.0699C60.1363 42.4041 59.3809 42.0802 58.7152 42.3463C58.0494 42.6124 57.7255 43.3678 57.9916 44.0335C58.2577 44.6992 59.0131 45.0232 59.6788 44.7571Z" fill="#F9F6F8"/>
<path d="M56.371 47.2921C57.453 46.8596 57.9795 45.6319 57.547 44.5499C57.1145 43.4679 55.8868 42.9414 54.8048 43.3739C53.7228 43.8064 53.1963 45.0341 53.6288 46.1161C54.0613 47.1981 55.289 47.7246 56.371 47.2921Z" fill="#F9F6F8"/>
<path d="M37.8966 55.4539C42.2244 55.4539 45.7327 51.9456 45.7327 47.6178C45.7327 43.2901 42.2244 39.7817 37.8966 39.7817C33.5689 39.7817 30.0605 43.2901 30.0605 47.6178C30.0605 51.9456 33.5689 55.4539 37.8966 55.4539Z" stroke="#2B2A29" stroke-width="0.551493" stroke-miterlimit="22.9256"/>
<path fill-rule="evenodd" clip-rule="evenodd" d="M45.7054 41.2176C42.1706 36.9056 35.8093 36.2756 31.4974 39.8104C27.1853 43.3453 26.5554 49.7065 30.0902 54.0185C33.625 58.3305 39.9863 58.9605 44.2984 55.4256C48.6104 51.8908 49.2404 45.5295 45.7055 41.2175L45.7054 41.2176Z" fill="url(#paint3_linear_674_438)"/>
<path d="M40.9295 55.2037C45.119 53.529 47.1576 48.7752 45.483 44.5857C43.8083 40.3962 39.0545 38.3576 34.865 40.0322C30.6755 41.7069 28.6369 46.4607 30.3115 50.6502C31.9862 54.8396 36.74 56.8783 40.9295 55.2037Z" fill="#F6E125"/>
<path d="M41.5752 53.7819C44.9794 52.4212 46.636 48.5583 45.2752 45.1541C43.9144 41.7498 40.0516 40.0933 36.6473 41.4541C33.2431 42.8148 31.5865 46.6777 32.9473 50.0819C34.3081 53.4862 38.1709 55.1427 41.5752 53.7819Z" fill="#2B2A29"/>
<path d="M37.6163 44.7571C38.282 44.491 38.606 43.7356 38.3399 43.0699C38.0738 42.4041 37.3184 42.0802 36.6527 42.3463C35.9869 42.6124 35.663 43.3678 35.9291 44.0335C36.1952 44.6992 36.9506 45.0232 37.6163 44.7571Z" fill="#F9F6F8"/>
<path d="M34.3075 47.2921C35.3895 46.8596 35.916 45.6319 35.4835 44.5499C35.051 43.4679 33.8233 42.9414 32.7413 43.3739C31.6593 43.8064 31.1328 45.0341 31.5653 46.1161C31.9978 47.1981 33.2256 47.7246 34.3075 47.2921Z" fill="#F9F6F8"/>
<path d="M50.1383 64.6626C51.9503 64.672 53.141 64.2284 53.9406 63.6048C54.7224 62.9953 55.158 62.1852 55.439 61.4647C55.7707 60.7695 56.5605 60.7899 56.9707 61.2982C57.1179 61.4807 57.2123 61.7923 57.1114 62.1182C56.7393 63.0724 56.1475 64.1567 55.0439 65.0171C53.9583 65.8635 52.4053 66.4661 50.1313 66.4544C49.4063 66.4139 49.245 65.7889 49.2394 65.4966C49.2337 65.1904 49.3815 64.7188 50.1383 64.6625V64.6626Z" fill="#2B2A29"/>
<circle cx="50" cy="50" r="48.5" stroke="#00BBC2" stroke-width="3"/>
<defs>
<linearGradient id="paint0_linear_674_438" x1="49.4175" y1="62.762" x2="50.0672" y2="44.3181" gradientUnits="userSpaceOnUse">
<stop stop-color="#167723"/>
<stop offset="0.34902" stop-color="#238F31"/>
<stop offset="1" stop-color="#30A83F"/>
</linearGradient>
<linearGradient id="paint1_linear_674_438" x1="49.8248" y1="56.0902" x2="48.9323" y2="99.4818" gradientUnits="userSpaceOnUse">
<stop stop-color="white"/>
<stop offset="0.567308" stop-color="#EAF1CF"/>
<stop offset="0.903846" stop-color="#D4E29F"/>
</linearGradient>
<linearGradient id="paint2_linear_674_438" x1="58.7124" y1="57.0547" x2="65.8876" y2="38.181" gradientUnits="userSpaceOnUse">
<stop stop-color="#30A83F"/>
<stop offset="0.631373" stop-color="#58BC3A"/>
<stop offset="1" stop-color="#80D034"/>
</linearGradient>
<linearGradient id="paint3_linear_674_438" x1="40.0994" y1="57.4708" x2="35.6962" y2="37.7652" gradientUnits="userSpaceOnUse">
<stop stop-color="#30A83F"/>
<stop offset="0.631373" stop-color="#59BC3A"/>
<stop offset="1" stop-color="#83D134"/>
</linearGradient>
</defs>
</svg>
