<svg width="55" height="54" viewBox="0 0 55 54" fill="none" xmlns="http://www.w3.org/2000/svg">
<path d="M27.5 2C41.3071 2 52.5 13.1929 52.5 27C52.5 40.8071 41.3071 52 27.5 52C13.6929 52 2.5 40.8071 2.5 27C2.5 13.1929 13.6929 2 27.5 2ZM27.5 4C14.7975 4 4.5 14.2975 4.5 27C4.5 39.7025 14.7975 50 27.5 50C40.2025 50 50.5 39.7025 50.5 27C50.5 14.2975 40.2025 4 27.5 4ZM27.5 28.9814C29.2821 28.9814 31.0469 28.2735 32.6934 28.9814C34.3399 29.6896 35.8364 30.7277 37.0967 32.0361C38.3568 33.3445 39.3561 34.898 40.0381 36.6074C40.5325 37.8468 40.8533 39.151 40.9922 40.4795C41.0796 41.3159 40.4147 41.9998 39.6045 42H15.3955C14.5853 41.9998 13.9204 41.3159 14.0078 40.4795C14.1467 39.151 14.4675 37.8468 14.9619 36.6074C15.6439 34.898 16.6432 33.3445 17.9033 32.0361C19.1636 30.7277 20.6601 29.6896 22.3066 28.9814C23.9531 28.2735 25.7179 28.9814 27.5 28.9814ZM27.5 11C31.9969 11.0001 35.6423 14.7851 35.6426 19.4541C35.6426 24.1233 31.9971 27.909 27.5 27.9092C23.0028 27.9092 19.3564 24.1234 19.3564 19.4541C19.3567 14.785 23.0029 11 27.5 11Z" fill="#7544EF"/>
</svg>
