<svg width="44" height="44" viewBox="0 0 44 44" fill="none" xmlns="http://www.w3.org/2000/svg">
<path d="M14.8363 4.8125C9.30949 4.8125 4.8125 9.31214 4.8125 14.8403V29.1624C4.8125 34.6899 9.31214 39.1875 14.8403 39.1875H29.1624C34.6899 39.1875 39.1875 34.6879 39.1875 29.1597V14.8363C39.1875 9.30949 34.6879 4.8125 29.1597 4.8125H14.8363ZM32.3125 10.3125C33.0715 10.3125 33.6875 10.9285 33.6875 11.6875C33.6875 12.4465 33.0715 13.0625 32.3125 13.0625C31.5535 13.0625 30.9375 12.4465 30.9375 11.6875C30.9375 10.9285 31.5535 10.3125 32.3125 10.3125ZM22 13.0625C26.9294 13.0625 30.9375 17.0706 30.9375 22C30.9375 26.9294 26.9287 30.9375 22 30.9375C17.0706 30.9375 13.0625 26.9287 13.0625 22C13.0625 17.0713 17.0706 13.0625 22 13.0625ZM22 15.8125C18.5824 15.8125 15.8125 18.5824 15.8125 22C15.8125 25.4176 18.5824 28.1875 22 28.1875C25.4176 28.1875 28.1875 25.4176 28.1875 22C28.1875 18.5824 25.4176 15.8125 22 15.8125Z" fill="white"/>
</svg>
