<svg width="70" height="70" viewBox="0 0 70 70" fill="none" xmlns="http://www.w3.org/2000/svg">
<path d="M63.6285 0H6.37153C2.85263 0 0 4.81192 0 10.7477V59.2523C0 65.1881 2.85263 70 6.37153 70H63.6285C67.1474 70 70 65.1881 70 59.2523V10.7477C70 4.81192 67.1474 0 63.6285 0Z" fill="#7544EF"/>
<path fill-rule="evenodd" clip-rule="evenodd" d="M35.3957 35.546C52.1439 35.546 66.1007 47.4968 69.2043 63.3354C67.7105 66.8312 64.7129 69.3193 60.2531 69.9984H10.4295C6.40759 69.8385 2.91816 67.4391 1.38477 64.4686C4.0304 48.0702 18.2505 35.546 35.3956 35.546H35.3957Z" fill="url(#paint0_linear_101_59)"/>
<path fill-rule="evenodd" clip-rule="evenodd" d="M35.3956 52.1895C46.949 52.1895 56.7615 59.6401 60.2923 69.9985H10.499C14.0298 59.6401 23.8424 52.1895 35.3956 52.1895Z" fill="url(#paint1_linear_101_59)"/>
<path d="M52.7912 51.3229C58.9576 51.3229 63.9564 46.324 63.9564 40.1576C63.9564 33.9913 58.9576 28.9924 52.7912 28.9924C46.6248 28.9924 41.626 33.9913 41.626 40.1576C41.626 46.324 46.6248 51.3229 52.7912 51.3229Z" stroke="#2B2A29" stroke-width="0.75557" stroke-miterlimit="22.9256"/>
<path fill-rule="evenodd" clip-rule="evenodd" d="M43.0848 29.5412C48.9482 24.1804 58.047 24.5878 63.4078 30.4511C68.7687 36.3145 68.3613 45.4134 62.4979 50.7742C56.6345 56.135 47.5356 55.7276 42.1748 49.8643C36.814 44.001 37.2214 34.902 43.0848 29.5412Z" fill="url(#paint2_linear_101_59)"/>
<path d="M57.1115 50.9661C63.0809 48.58 65.9857 41.8065 63.5995 35.8372C61.2134 29.8678 54.4399 26.963 48.4706 29.3492C42.5012 31.7353 39.5964 38.5087 41.9826 44.4781C44.3687 50.4475 51.1422 53.3522 57.1115 50.9661Z" fill="#F6E125"/>
<path d="M54.7001 48.9403C59.5506 47.0014 61.911 41.4975 59.9721 36.6469C58.0332 31.7964 52.5292 29.436 47.6787 31.375C42.8281 33.3139 40.4678 38.8178 42.4067 43.6683C44.3456 48.5189 49.8495 50.8792 54.7001 48.9403Z" fill="#2B2A29"/>
<path d="M49.0578 36.0817C50.0064 35.7025 50.468 34.6262 50.0888 33.6777C49.7097 32.7291 48.6333 32.2676 47.6848 32.6467C46.7362 33.0259 46.2747 34.1022 46.6538 35.0507C47.033 35.9993 48.1093 36.4609 49.0578 36.0817Z" fill="#F9F6F8"/>
<path d="M44.3443 39.6936C45.886 39.0774 46.6362 37.328 46.0199 35.7864C45.4037 34.2447 43.6544 33.4945 42.1127 34.1108C40.5711 34.727 39.8209 36.4763 40.4371 38.018C41.0533 39.5596 42.8027 40.3098 44.3443 39.6936Z" fill="#F9F6F8"/>
<path d="M18.0222 51.3229C24.1885 51.3229 29.1874 46.324 29.1874 40.1576C29.1874 33.9913 24.1885 28.9924 18.0222 28.9924C11.8558 28.9924 6.85693 33.9913 6.85693 40.1576C6.85693 46.324 11.8558 51.3229 18.0222 51.3229Z" stroke="#2B2A29" stroke-width="0.75557" stroke-miterlimit="22.9256"/>
<path fill-rule="evenodd" clip-rule="evenodd" d="M29.1467 31.0381C24.1101 24.8941 15.0463 23.9964 8.90242 29.0331C2.75841 34.0697 1.86079 43.1335 6.8974 49.2773C11.934 55.4213 20.9978 56.319 27.1418 51.2824C33.2858 46.2458 34.1835 37.1819 29.1469 31.0379L29.1467 31.0381Z" fill="url(#paint3_linear_101_59)"/>
<path d="M22.3425 50.9661C28.3118 48.58 31.2166 41.8065 28.8305 35.8372C26.4444 29.8678 19.6709 26.963 13.7015 29.3492C7.73219 31.7353 4.8274 38.5087 7.21353 44.4781C9.59966 50.4475 16.3731 53.3522 22.3425 50.9661Z" fill="#F6E125"/>
<path d="M23.2631 48.9403C28.1136 47.0014 30.4739 41.4975 28.535 36.6469C26.5961 31.7964 21.0922 29.436 16.2417 31.375C11.3911 33.3139 9.03078 38.8178 10.9697 43.6683C12.9086 48.5189 18.4125 50.8792 23.2631 48.9403Z" fill="#2B2A29"/>
<path d="M17.6208 36.0817C18.5694 35.7025 19.031 34.6262 18.6518 33.6777C18.2726 32.7291 17.1963 32.2676 16.2478 32.6467C15.2992 33.0259 14.8376 34.1022 15.2168 35.0507C15.596 35.9993 16.6723 36.4609 17.6208 36.0817Z" fill="#F9F6F8"/>
<path d="M12.9073 39.6936C14.449 39.0774 15.1992 37.328 14.5829 35.7864C13.9667 34.2447 12.2174 33.4945 10.6757 34.1108C9.13404 34.727 8.38384 36.4763 9.00009 38.018C9.61633 39.5596 11.3657 40.3098 12.9073 39.6936Z" fill="#F9F6F8"/>
<path d="M35.4641 64.4437C38.0459 64.457 39.7425 63.8249 40.8818 62.9364C41.9957 62.068 42.6164 60.9138 43.0168 59.887C43.4893 58.8966 44.6148 58.9256 45.1992 59.6498C45.409 59.9099 45.5435 60.3538 45.3997 60.8183C44.8694 62.1778 44.0262 63.7228 42.4538 64.9487C40.9071 66.1547 38.6942 67.0133 35.4541 66.9966C34.4211 66.9389 34.1913 66.0484 34.1833 65.6319C34.1751 65.1956 34.3858 64.5236 35.4641 64.4435V64.4437Z" fill="#2B2A29"/>
<defs>
<linearGradient id="paint0_linear_101_59" x1="34.4911" y1="70.0331" x2="36.0981" y2="35.5112" gradientUnits="userSpaceOnUse">
<stop stop-color="#167723"/>
<stop offset="0.34902" stop-color="#238F31"/>
<stop offset="1" stop-color="#30A83F"/>
</linearGradient>
<linearGradient id="paint1_linear_101_59" x1="35.0139" y1="52.1426" x2="35.7774" y2="70.0453" gradientUnits="userSpaceOnUse">
<stop stop-color="white"/>
<stop offset="0.768627" stop-color="#EAF1CF"/>
<stop offset="1" stop-color="#D4E29F"/>
</linearGradient>
<linearGradient id="paint2_linear_101_59" x1="47.6795" y1="53.6038" x2="57.9031" y2="26.7116" gradientUnits="userSpaceOnUse">
<stop stop-color="#30A83F"/>
<stop offset="0.631373" stop-color="#58BC3A"/>
<stop offset="1" stop-color="#80D034"/>
</linearGradient>
<linearGradient id="paint3_linear_101_59" x1="21.159" y1="54.1964" x2="14.8851" y2="26.119" gradientUnits="userSpaceOnUse">
<stop stop-color="#30A83F"/>
<stop offset="0.631373" stop-color="#59BC3A"/>
<stop offset="1" stop-color="#83D134"/>
</linearGradient>
</defs>
</svg>
