<svg width="296" height="50" viewBox="0 0 296 50" fill="none" xmlns="http://www.w3.org/2000/svg">
<g clip-path="url(#clip0_430_29)">
<path fill-rule="evenodd" clip-rule="evenodd" d="M25.2828 25.3901C37.2458 25.3901 47.2149 33.9264 49.4318 45.2397C48.3648 47.7367 46.2237 49.514 43.0381 49.999H7.44979C4.57699 49.8848 2.08454 48.171 0.989258 46.0491C2.879 34.336 13.0362 25.3901 25.2827 25.3901H25.2828Z" fill="url(#paint0_linear_430_29)"/>
<path fill-rule="evenodd" clip-rule="evenodd" d="M25.2828 37.2783C33.5352 37.2783 40.5441 42.6002 43.0661 49.999H7.49951C10.0215 42.6002 17.0305 37.2783 25.2828 37.2783Z" fill="url(#paint1_linear_430_29)"/>
<path d="M4.55078 0.5H45.4492C46.4582 0.500143 47.4605 1.19355 48.2373 2.50391C49.0075 3.80342 49.5 5.63114 49.5 7.67676V42.3232C49.5 44.3689 49.0075 46.1966 48.2373 47.4961C47.4605 48.8064 46.4582 49.4999 45.4492 49.5H4.55078C3.54176 49.4999 2.53951 48.8064 1.7627 47.4961C0.992454 46.1966 0.50003 44.3689 0.5 42.3232V7.67676C0.50003 5.63114 0.992454 3.80342 1.7627 2.50391C2.53951 1.19355 3.54176 0.500143 4.55078 0.5Z" stroke="white"/>
<path d="M37.7081 36.6593C42.1126 36.6593 45.6832 33.0887 45.6832 28.6841C45.6832 24.2796 42.1126 20.709 37.7081 20.709C33.3035 20.709 29.7329 24.2796 29.7329 28.6841C29.7329 33.0887 33.3035 36.6593 37.7081 36.6593Z" stroke="#2B2A29" stroke-width="0.75557" stroke-miterlimit="22.9256"/>
<path fill-rule="evenodd" clip-rule="evenodd" d="M30.7749 21.101C34.963 17.2719 41.4622 17.5629 45.2914 21.751C49.1205 25.9391 48.8296 32.4383 44.6414 36.2675C40.4533 40.0966 33.9541 39.8056 30.125 35.6175C26.2958 31.4295 26.5868 24.9302 30.7749 21.101Z" fill="url(#paint2_linear_430_29)"/>
<path d="M40.7943 36.4045C45.0581 34.7001 47.133 29.8619 45.4286 25.5981C43.7242 21.3342 38.886 19.2594 34.6222 20.9638C30.3584 22.6681 28.2835 27.5063 29.9879 31.7701C31.6923 36.034 36.5305 38.1088 40.7943 36.4045Z" fill="#F6E125"/>
<path d="M39.0713 34.9575C42.536 33.5726 44.222 29.6412 42.837 26.1765C41.4521 22.7118 37.5207 21.0259 34.0561 22.4108C30.5914 23.7957 28.9054 27.7271 30.2904 31.1918C31.6753 34.6565 35.6067 36.3424 39.0713 34.9575Z" fill="#2B2A29"/>
<path d="M35.0415 25.7728C35.7191 25.5019 36.0488 24.7331 35.7779 24.0556C35.5071 23.3781 34.7383 23.0484 34.0608 23.3192C33.3832 23.59 33.0535 24.3588 33.3244 25.0364C33.5952 25.7139 34.364 26.0436 35.0415 25.7728Z" fill="#F9F6F8"/>
<path d="M31.6743 28.3524C32.7755 27.9122 33.3114 26.6627 32.8712 25.5615C32.431 24.4603 31.1815 23.9244 30.0803 24.3646C28.9791 24.8048 28.4433 26.0543 28.8834 27.1555C29.3236 28.2567 30.5731 28.7925 31.6743 28.3524Z" fill="#F9F6F8"/>
<path d="M12.8731 36.6593C17.2777 36.6593 20.8483 33.0887 20.8483 28.6841C20.8483 24.2796 17.2777 20.709 12.8731 20.709C8.46855 20.709 4.89795 24.2796 4.89795 28.6841C4.89795 33.0887 8.46855 36.6593 12.8731 36.6593Z" stroke="#2B2A29" stroke-width="0.75557" stroke-miterlimit="22.9256"/>
<path fill-rule="evenodd" clip-rule="evenodd" d="M20.8191 22.1699C17.2215 17.7813 10.7473 17.1402 6.35887 20.7377C1.9703 24.3353 1.32914 30.8095 4.92671 35.198C8.52429 39.5865 14.9984 40.2277 19.387 36.6301C23.7756 33.0325 24.4168 26.5584 20.8192 22.1698L20.8191 22.1699Z" fill="url(#paint3_linear_430_29)"/>
<path d="M15.9588 36.4045C20.2227 34.7001 22.2975 29.8619 20.5931 25.5981C18.8888 21.3342 14.0506 19.2594 9.78675 20.9638C5.52292 22.6681 3.44808 27.5063 5.15245 31.7701C6.85683 36.034 11.695 38.1088 15.9588 36.4045Z" fill="#F6E125"/>
<path d="M16.6163 34.9575C20.0809 33.5726 21.7669 29.6412 20.382 26.1765C18.997 22.7118 15.0657 21.0259 11.601 22.4108C8.13631 23.7957 6.45035 27.7271 7.83528 31.1918C9.22021 34.6565 13.1516 36.3424 16.6163 34.9575Z" fill="#2B2A29"/>
<path d="M12.5865 25.7728C13.264 25.5019 13.5937 24.7331 13.3229 24.0556C13.052 23.3781 12.2832 23.0484 11.6057 23.3192C10.9282 23.59 10.5985 24.3588 10.8693 25.0364C11.1401 25.7139 11.9089 26.0436 12.5865 25.7728Z" fill="#F9F6F8"/>
<path d="M9.21924 28.3524C10.3204 27.9122 10.8563 26.6627 10.4161 25.5615C9.97593 24.4603 8.72641 23.9244 7.62522 24.3646C6.52404 24.8048 5.98818 26.0543 6.42836 27.1555C6.86853 28.2567 8.11805 28.7925 9.21924 28.3524Z" fill="#F9F6F8"/>
<path d="M25.3315 46.0314C27.1757 46.0409 28.3875 45.5894 29.2013 44.9548C29.9969 44.3345 30.4403 43.51 30.7263 42.7767C31.0638 42.0692 31.8677 42.0899 32.2852 42.6072C32.435 42.793 32.5311 43.1101 32.4284 43.4418C32.0496 44.4129 31.4473 45.5165 30.3242 46.3922C29.2193 47.2536 27.6387 47.8669 25.3244 47.8549C24.5865 47.8137 24.4223 47.1776 24.4167 46.8801C24.4108 46.5685 24.5613 46.0885 25.3315 46.0313V46.0314Z" fill="#2B2A29"/>
</g>
<path d="M113.296 22.192C113.296 23.984 112.613 25.616 111.248 27.088C109.883 28.5387 107.995 29.6907 105.584 30.544C103.173 31.376 100.475 31.792 97.488 31.792H96.016V34H88.144V31.792H86.896H86.704H86.672C83.792 31.792 81.104 31.3653 78.608 30.512C76.112 29.6587 74.1067 28.5067 72.592 27.056C71.0987 25.584 70.352 23.9627 70.352 22.192C70.352 20.4 71.088 18.7787 72.56 17.328C74.0533 15.8773 76.0373 14.7253 78.512 13.872C81.008 13.0187 83.696 12.5813 86.576 12.56H88.144V10.32H96.016V12.56H97.488C100.496 12.5813 103.195 13.008 105.584 13.84C107.995 14.672 109.883 15.824 111.248 17.296C112.613 18.7467 113.296 20.3787 113.296 22.192ZM88.144 26.32V18.032H86.96C84.8693 18.032 83.0027 18.3627 81.36 19.024C79.7173 19.664 78.896 20.72 78.896 22.192C78.896 23.6427 79.7173 24.6987 81.36 25.36C83.024 26 84.8907 26.32 86.96 26.32H88.144ZM97.392 26.32C99.4827 26.32 101.264 26 102.736 25.36C104.208 24.72 104.944 23.664 104.944 22.192C104.944 20.6987 104.197 19.632 102.704 18.992C101.232 18.352 99.4613 18.032 97.392 18.032H96.016V26.32H97.392ZM140.184 25.68C140.142 27.1947 139.758 28.6347 139.032 30C138.328 31.3653 137.336 32.4747 136.056 33.328C134.776 34.16 133.326 34.576 131.704 34.576C128.014 34.576 125.262 33.744 123.448 32.08V40.08H116.088V16.56H122.84L123.256 18.8C125.048 16.9653 127.864 16.0907 131.704 16.176C133.347 16.176 134.798 16.5813 136.056 17.392C137.336 18.2027 138.339 19.312 139.064 20.72C139.79 22.128 140.163 23.7067 140.184 25.456V25.552V25.68ZM128.024 30.224C129.518 30.224 130.67 29.7653 131.48 28.848C132.312 27.9093 132.75 26.8 132.792 25.52C132.75 24.048 132.323 22.8427 131.512 21.904C130.723 20.944 129.56 20.464 128.024 20.464C127.15 20.464 126.36 20.688 125.656 21.136C124.974 21.5627 124.43 22.1493 124.024 22.896C123.64 23.6213 123.448 24.4 123.448 25.232V25.296C123.448 26.7893 123.864 27.984 124.696 28.88C125.55 29.776 126.659 30.224 128.024 30.224ZM155.317 15.824C157.621 15.824 159.701 16.2293 161.557 17.04C163.413 17.8507 164.864 18.9813 165.909 20.432C166.954 21.8613 167.477 23.472 167.477 25.264C167.477 27.0347 166.944 28.6453 165.877 30.096C164.832 31.5253 163.381 32.6453 161.525 33.456C159.69 34.2667 157.621 34.672 155.317 34.672C153.098 34.672 151.018 34.2667 149.077 33.456C147.136 32.624 145.578 31.4933 144.405 30.064C143.253 28.6133 142.677 27.0133 142.677 25.264C142.677 23.4933 143.253 21.8933 144.405 20.464C145.578 19.0133 147.125 17.8827 149.045 17.072C150.986 16.24 153.077 15.824 155.317 15.824ZM155.317 30.096C156.17 30.096 156.96 29.9147 157.685 29.552C158.432 29.1893 159.029 28.6453 159.477 27.92C159.925 27.1733 160.149 26.288 160.149 25.264C160.149 24.24 159.925 23.3653 159.477 22.64C159.029 21.8933 158.432 21.3387 157.685 20.976C156.96 20.6133 156.17 20.432 155.317 20.432C154.485 20.432 153.664 20.624 152.853 21.008C152.064 21.3707 151.413 21.9147 150.901 22.64C150.389 23.3653 150.133 24.24 150.133 25.264C150.133 26.288 150.389 27.1627 150.901 27.888C151.413 28.6133 152.064 29.168 152.853 29.552C153.664 29.9147 154.485 30.096 155.317 30.096ZM187.281 16.56V21.552H178.097V34H170.257V16.56H187.281ZM219.737 10.32V34H211.801V15.92H198.617V34H190.681V10.32H219.737ZM247.584 25.68C247.542 27.1947 247.158 28.6347 246.432 30C245.728 31.3653 244.736 32.4747 243.456 33.328C242.176 34.16 240.726 34.576 239.104 34.576C235.414 34.576 232.662 33.744 230.848 32.08V40.08H223.488V16.56H230.24L230.656 18.8C232.448 16.9653 235.264 16.0907 239.104 16.176C240.747 16.176 242.198 16.5813 243.456 17.392C244.736 18.2027 245.739 19.312 246.464 20.72C247.19 22.128 247.563 23.7067 247.584 25.456V25.552V25.68ZM235.424 30.224C236.918 30.224 238.07 29.7653 238.88 28.848C239.712 27.9093 240.15 26.8 240.192 25.52C240.15 24.048 239.723 22.8427 238.912 21.904C238.123 20.944 236.96 20.464 235.424 20.464C234.55 20.464 233.76 20.688 233.056 21.136C232.374 21.5627 231.83 22.1493 231.424 22.896C231.04 23.6213 230.848 24.4 230.848 25.232V25.296C230.848 26.7893 231.264 27.984 232.096 28.88C232.95 29.776 234.059 30.224 235.424 30.224ZM262.717 15.824C265.021 15.824 267.101 16.2293 268.957 17.04C270.813 17.8507 272.264 18.9813 273.309 20.432C274.354 21.8613 274.877 23.472 274.877 25.264C274.877 27.0347 274.344 28.6453 273.277 30.096C272.232 31.5253 270.781 32.6453 268.925 33.456C267.09 34.2667 265.021 34.672 262.717 34.672C260.498 34.672 258.418 34.2667 256.477 33.456C254.536 32.624 252.978 31.4933 251.805 30.064C250.653 28.6133 250.077 27.0133 250.077 25.264C250.077 23.4933 250.653 21.8933 251.805 20.464C252.978 19.0133 254.525 17.8827 256.445 17.072C258.386 16.24 260.477 15.824 262.717 15.824ZM262.717 30.096C263.57 30.096 264.36 29.9147 265.085 29.552C265.832 29.1893 266.429 28.6453 266.877 27.92C267.325 27.1733 267.549 26.288 267.549 25.264C267.549 24.24 267.325 23.3653 266.877 22.64C266.429 21.8933 265.832 21.3387 265.085 20.976C264.36 20.6133 263.57 20.432 262.717 20.432C261.885 20.432 261.064 20.624 260.253 21.008C259.464 21.3707 258.813 21.9147 258.301 22.64C257.789 23.3653 257.533 24.24 257.533 25.264C257.533 26.288 257.789 27.1627 258.301 27.888C258.813 28.6133 259.464 29.168 260.253 29.552C261.064 29.9147 261.885 30.096 262.717 30.096ZM294.681 16.56V21.552H285.497V34H277.657V16.56H294.681Z" fill="white"/>
<defs>
<linearGradient id="paint0_linear_430_29" x1="24.6366" y1="50.0238" x2="25.7845" y2="25.3653" gradientUnits="userSpaceOnUse">
<stop stop-color="#167723"/>
<stop offset="0.34902" stop-color="#238F31"/>
<stop offset="1" stop-color="#30A83F"/>
</linearGradient>
<linearGradient id="paint1_linear_430_29" x1="25.0101" y1="37.2448" x2="25.5555" y2="50.0325" gradientUnits="userSpaceOnUse">
<stop stop-color="white"/>
<stop offset="0.768627" stop-color="#EAF1CF"/>
<stop offset="1" stop-color="#D4E29F"/>
</linearGradient>
<linearGradient id="paint2_linear_430_29" x1="34.0569" y1="38.2886" x2="41.3594" y2="19.0799" gradientUnits="userSpaceOnUse">
<stop stop-color="#30A83F"/>
<stop offset="0.631373" stop-color="#58BC3A"/>
<stop offset="1" stop-color="#80D034"/>
</linearGradient>
<linearGradient id="paint3_linear_430_29" x1="15.1136" y1="38.7116" x2="10.6322" y2="18.6563" gradientUnits="userSpaceOnUse">
<stop stop-color="#30A83F"/>
<stop offset="0.631373" stop-color="#59BC3A"/>
<stop offset="1" stop-color="#83D134"/>
</linearGradient>
<clipPath id="clip0_430_29">
<rect width="50" height="50" fill="white"/>
</clipPath>
</defs>
</svg>
