<svg width="44" height="44" viewBox="0 0 44 44" fill="none" xmlns="http://www.w3.org/2000/svg">
<path d="M35.0952 4.8125H8.90476C6.64583 4.8125 4.8125 6.64583 4.8125 8.90476V35.0952C4.8125 37.3542 6.64583 39.1875 8.90476 39.1875H35.0952C37.3542 39.1875 39.1875 37.3542 39.1875 35.0952V8.90476C39.1875 6.64583 37.3542 4.8125 35.0952 4.8125ZM32.4107 28.5476L29.3579 28.5394C29.3579 28.5394 29.2924 28.5476 29.186 28.5476C28.9405 28.5476 28.433 28.4821 27.8356 28.0729C26.7634 27.3281 25.7403 25.4784 24.9301 25.4784C24.8728 25.4784 24.8237 25.4866 24.7746 25.503C24.0707 25.724 23.8579 26.4278 23.8579 27.2872C23.8579 27.59 23.6451 27.7292 23.0722 27.7292H21.4926C19.7247 27.7292 18.0141 27.6882 16.0908 25.5848C13.2589 22.4829 10.6071 16.9665 10.6071 16.9665C10.6071 16.9665 10.4598 16.6473 10.6153 16.4591C10.7626 16.2872 11.1064 16.2708 11.2374 16.2708C11.2701 16.2708 11.2865 16.2708 11.2865 16.2708H14.5603C14.5603 16.2708 14.8631 16.3281 15.0841 16.4918C15.2723 16.631 15.3705 16.8847 15.3705 16.8847C15.3705 16.8847 15.9271 17.965 16.6228 19.1845C17.7932 21.1979 18.4234 21.869 18.8735 21.869C18.9472 21.869 19.0208 21.8527 19.0945 21.8118C19.7656 21.4435 19.5692 18.4643 19.5692 18.4643C19.5692 18.4643 19.5774 17.3839 19.2254 16.9092C18.9554 16.5327 18.4397 16.4263 18.2106 16.3936C18.0305 16.369 18.3251 15.9435 18.718 15.747C19.2254 15.5015 20.0685 15.4524 21.0833 15.4524H21.5744C22.532 15.4688 22.5565 15.567 22.933 15.657C24.0625 15.9271 23.6778 16.9829 23.6778 19.5119C23.6778 20.3222 23.5305 21.4598 24.1116 21.8445C24.1525 21.869 24.2098 21.8854 24.2835 21.8854C24.66 21.8854 25.4702 21.4025 26.7634 19.2173C27.4836 17.9732 28.0402 16.7374 28.0402 16.7374C28.0402 16.7374 28.1629 16.5164 28.3512 16.4018C28.5312 16.2954 28.5312 16.2954 28.7686 16.2954H28.7932C29.0551 16.2954 31.6577 16.2708 32.2307 16.2708H32.2961C32.8445 16.2708 33.3438 16.279 33.4338 16.6146C33.5647 17.122 33.0327 18.0305 31.6332 19.9129C29.3251 22.9985 29.0632 22.7693 30.9784 24.5536C32.8118 26.256 33.1882 27.0826 33.2537 27.189C34.0149 28.4494 32.4107 28.5476 32.4107 28.5476Z" fill="white"/>
</svg>
